<?xml version="1.0" encoding="UTF-8" standalone="no"?>
<!-- Created with Inkscape (http://www.inkscape.org/) -->

<svg
   width="164.30771mm"
   height="136.6369mm"
   viewBox="0 0 164.30771 136.6369"
   version="1.1"
   id="svg5"
   inkscape:version="1.1.2 (0a00cf5339, 2022-02-04)"
   sodipodi:docname="guidemehead.svg"
   xmlns:inkscape="http://www.inkscape.org/namespaces/inkscape"
   xmlns:sodipodi="http://sodipodi.sourceforge.net/DTD/sodipodi-0.dtd"
   xmlns="http://www.w3.org/2000/svg"
   xmlns:svg="http://www.w3.org/2000/svg">
  <sodipodi:namedview
     id="namedview7"
     pagecolor="#ffffff"
     bordercolor="#666666"
     borderopacity="1.0"
     inkscape:pageshadow="2"
     inkscape:pageopacity="0.0"
     inkscape:pagecheckerboard="0"
     inkscape:document-units="mm"
     showgrid="false"
     inkscape:zoom="1"
     inkscape:cx="329"
     inkscape:cy="251"
     inkscape:window-width="1920"
     inkscape:window-height="1013"
     inkscape:window-x="0"
     inkscape:window-y="0"
     inkscape:window-maximized="1"
     inkscape:current-layer="layer1"
     inkscape:snap-bbox="true"
     fit-margin-top="0"
     fit-margin-left="0"
     fit-margin-right="0"
     fit-margin-bottom="0" />
  <defs
     id="defs2">
    <rect
       x="126.49511"
       y="440.12228"
       width="41.333019"
       height="110.46603"
       id="rect53673" />
    <rect
       x="119.58711"
       y="395.68402"
       width="20.661993"
       height="123.28048"
       id="rect43047" />
  </defs>
  <g
     inkscape:label="Layer 1"
     inkscape:groupmode="layer"
     id="layer1"
     transform="translate(-20.710536,-67.032374)">
    <text
       xml:space="preserve"
       transform="scale(0.26458333)"
       id="text43045"
       style="font-style:normal;font-weight:normal;font-size:40px;line-height:1.25;font-family:sans-serif;white-space:pre;shape-inside:url(#rect43047);fill:#000000;fill-opacity:1;stroke:none" />
    <g
       id="g45341"
       transform="matrix(0.64182701,0,0,0.67391483,20.710536,67.032374)">
      <path
         d="M 256,39.788 C 256,19.385 241.304,2.781 220.895,2.781 c -12.06,0 -20.814,4.191 -26.34,11.08 -1.033,0.786 -1.938,1.69 -2.838,2.607 C 173.904,6.078 152.134,0.07 128.115,0 103.177,0.068 81.12,5.888 63.324,16.159 57.661,7.848 47.783,2.781 34.398,2.781 13.989,2.781 0,19.385 0,39.788 0,55.435 7.682,67.87 19.476,73.492 c -1.815,7.387 -2.865,15.139 -2.865,23.29 0,59.075 48.976,105.969 111.498,105.969 h 0.059 c 60.436,0 111.498,-48.816 111.498,-105.916 0,-8.333 -1.227,-16.312 -3.322,-23.939 C 247.966,66.997 256,54.859 256,39.788"
         fill="#090b08"
         id="path45315" />
      <path
         d="m 226.806,97.41 c 0,49.378 -45.422,91.504 -98.875,91.504 -53.454,0 -98.883,-40.032 -98.883,-89.411 0,-49.385 45.429,-89.411 98.883,-89.411 53.453,0 98.875,37.933 98.875,87.318"
         fill="#ffffff"
         id="path45317" />
      <path
         d="M 107.819,78.44 C 105.553,95.672 94.087,108.374 82.225,106.808 70.362,105.243 62.582,90.005 64.854,72.773 67.126,55.541 78.585,42.84 90.454,44.405 c 11.863,1.559 19.643,16.796 17.365,34.035"
         fill="#090b08"
         id="path45319" />
      <path
         d="m 98.38,62.067 c 0,5.138 -4.167,9.306 -9.306,9.306 -5.139,0 -9.306,-4.168 -9.306,-9.306 0,-5.139 4.167,-9.307 9.306,-9.307 5.139,0 9.306,4.168 9.306,9.307"
         fill="#ffffff"
         id="path45321" />
      <path
         d="m 147.911,78.44 c 2.272,17.232 13.731,29.934 25.594,28.368 11.869,-1.565 19.643,-16.803 17.371,-34.035 -2.272,-17.232 -13.732,-29.933 -25.595,-28.368 -11.868,1.559 -19.642,16.796 -17.37,34.035"
         fill="#090b08"
         id="path45323" />
      <path
         d="m 157.356,62.067 c 0,5.138 4.161,9.306 9.306,9.306 5.139,0 9.3,-4.168 9.3,-9.306 0,-5.139 -4.161,-9.307 -9.3,-9.307 -5.145,0 -9.306,4.168 -9.306,9.307"
         fill="#ffffff"
         id="path45325" />
      <path
         d="m 134.853,138.443 v -10.208 c 0,-0.554 -0.053,-1.078 -0.167,-1.556 7.579,-1.457 13.079,-5.528 13.079,-10.379 0,-4.756 -1.057,-8.805 -8.401,-10.344 -2.035,-0.422 -8.415,-0.654 -10.7,-0.654 -2.186,0 -8.474,0.212 -10.429,0.601 -7.491,1.487 -8.679,5.582 -8.679,10.397 0,6.007 8.385,10.871 18.788,10.972 -0.04,0.316 -0.096,0.621 -0.096,0.963 v 10.683 c -15.285,-0.189 -29.511,-10.613 -29.511,-3.649 0,7.034 15.138,13.699 30.581,13.699 15.442,0 27.959,-5.7 27.959,-12.735 0,-6.069 -9.814,0.337 -22.424,2.21"
         fill="#090b08"
         id="path45327" />
      <path
         d="m 136.946,114.206 c 0,1.962 -4.861,3.56 -8.282,3.56 -3.421,0 -8.289,-1.598 -8.289,-3.56 0,-1.565 2.476,-2.893 4.907,-3.375 0.634,-0.126 2.675,-0.192 3.382,-0.192 0.74,0 2.807,0.08 3.467,0.212 2.378,0.495 4.815,1.809 4.815,3.355"
         fill="#e7ebe0"
         id="path45329" />
      <path
         d="m 127.931,10.092 c -53.454,0 -98.883,40.026 -98.883,89.411 0,49.379 45.429,89.411 98.883,89.411 -2.134,0 -4.254,-0.086 -6.354,-0.211 2.787,-0.172 5.541,-0.456 8.269,-0.846 -46.756,-6.578 -84.047,-43.619 -84.047,-88.354 0,-44.86 37.496,-81.98 84.437,-88.4 -2.807,-0.376 -5.647,-0.647 -8.514,-0.812 2.061,-0.119 4.128,-0.199 6.209,-0.199"
         fill="#e1dedc"
         id="path45331" />
      <path
         d="m 127.931,10.092 c 2.86,0 5.693,0.133 8.507,0.344 -2.081,0.165 -4.155,0.383 -6.202,0.667 46.743,6.262 84.008,41.578 84.008,86.307 0,44.847 -37.476,83.691 -84.398,90.447 2.094,0.291 4.207,0.522 6.334,0.694 -2.728,0.224 -5.475,0.363 -8.249,0.363 53.453,0 98.875,-42.126 98.875,-91.504 0,-49.385 -45.422,-87.318 -98.875,-87.318"
         fill="#f1efee"
         id="path45333" />
      <path
         d="m 129.846,187.857 c -2.728,0.39 -5.482,0.674 -8.269,0.846 2.1,0.125 4.22,0.211 6.354,0.211 2.774,0 5.521,-0.139 8.249,-0.363 -2.127,-0.172 -4.24,-0.403 -6.334,-0.694 M 127.931,10.092 v 0 c -2.081,0 -4.148,0.08 -6.209,0.199 2.867,0.165 5.707,0.436 8.514,0.812 2.047,-0.284 4.121,-0.502 6.202,-0.667 -2.814,-0.211 -5.647,-0.344 -8.507,-0.344"
         fill="#d3d0cd"
         id="path45335" />
      <path
         d="m 229.008,54.533 c 4.09,-3.612 6.722,-8.837 6.722,-14.725 0,-10.885 -8.824,-19.716 -19.716,-19.716 -4.74,0 -9.031,1.742 -12.431,4.529 10.633,8.313 19.267,18.423 25.425,29.912"
         fill="#ffffff"
         id="path45337" />
      <path
         d="M 26.049,55.36 C 31.866,43.537 40.24,33.252 50.737,24.84 47.298,21.921 42.902,20.092 38.038,20.092 c -10.885,0 -19.716,8.831 -19.716,19.716 0,6.356 3.059,11.947 7.727,15.552"
         fill="#ffffff"
         id="path45339" />
    </g>
    <text
       xml:space="preserve"
       transform="scale(0.26458333)"
       id="text53671"
       style="font-style:normal;font-weight:normal;font-size:40px;line-height:1.25;font-family:sans-serif;white-space:pre;shape-inside:url(#rect53673);fill:#000000;fill-opacity:1;stroke:none" />
  </g>
</svg>
